<svg id="Logo" xmlns="http://www.w3.org/2000/svg" width="200" height="55.482" viewBox="0 0 200 55.482">
  <path id="Caminho_141" data-name="Caminho 141" d="M0,375.917V359.205H4.3v12.94h8.023v3.773Zm26.2.335a8.693,8.693,0,1,1,0-17.382,8.693,8.693,0,1,1,0,17.382Zm0-3.963h0a4.109,4.109,0,0,0,3.127-1.338,5.175,5.175,0,0,0,0-6.78,4.11,4.11,0,0,0-3.127-1.338,4.165,4.165,0,0,0-3.152,1.338,5.249,5.249,0,0,0,0,6.78A4.165,4.165,0,0,0,26.2,372.289Zm16.626,1.527a8.733,8.733,0,0,1-.025-12.51,9.468,9.468,0,0,1,6.661-2.436,9.653,9.653,0,0,1,4.321.955v4.227a7.933,7.933,0,0,0-4.273-1.218A4.9,4.9,0,0,0,46,364.171a4.5,4.5,0,0,0-1.408,3.391,4.451,4.451,0,0,0,1.432,3.413,5.24,5.24,0,0,0,3.653,1.313,7.067,7.067,0,0,0,4.393-1.338V375.2a9.957,9.957,0,0,1-4.584,1.052A9.464,9.464,0,0,1,42.827,373.816Zm43.517,2.1V362.976H81.33v-3.771H95.68v3.771H90.642v12.941Zm15.953,0V359.205H115v3.771H106.6v2.268h6.686v3.63H106.6v3.27H115v3.773H102.3Zm20.347,0V359.205h4.3v12.94h8.022v3.773Zm18.914,0V359.205h4.3v12.94h8.023v3.773h-12.32Zm18.962,0V359.205h4.3v16.712ZM68.786,364.481l4.465,11.437h4.655l-7.019-16.808H66.756l-7.019,16.808H64.32l4.466-11.437Zm9.5,29.734,3.158-7.124h.7l3.168,7.124h-.789l-.881-1.952H79.93l-.86,1.952h-.779Zm1.892-2.61H83.4l-1.609-3.573Zm8.714,2.61v-7.084h2.318a3.9,3.9,0,0,1,2.773.982,3.616,3.616,0,0,1,0,5.122,3.9,3.9,0,0,1-2.773.981H88.9Zm.749-.677h1.478a3.313,3.313,0,0,0,2.318-.78,2.981,2.981,0,0,0,0-4.17,3.311,3.311,0,0,0-2.318-.779H89.645Zm11.43.718-3.117-7.125h.82l2.651,6.092,2.652-6.092h.819l-3.127,7.125h-.7Zm10.3-7.246a3.389,3.389,0,0,1,2.54,1.052,3.859,3.859,0,0,1,0,5.233,3.629,3.629,0,0,1-5.09,0,3.889,3.889,0,0,1,0-5.233,3.413,3.413,0,0,1,2.55-1.052Zm0,6.629h0a2.643,2.643,0,0,0,1.994-.85,3.168,3.168,0,0,0,0-4.231,2.762,2.762,0,0,0-3.987,0,3.17,3.17,0,0,0,0,4.231A2.645,2.645,0,0,0,111.377,393.639Zm8.243-.335a3.856,3.856,0,0,1,0-5.252,3.514,3.514,0,0,1,2.6-1.043,3.638,3.638,0,0,1,2.247.678v.759a3.556,3.556,0,0,0-2.206-.739,2.838,2.838,0,0,0-2.085.84,3.164,3.164,0,0,0-.01,4.26,2.763,2.763,0,0,0,2.034.83,2.715,2.715,0,0,0,2.014-.738v-2.753h.738v3.046a3.7,3.7,0,0,1-2.753,1.144,3.535,3.535,0,0,1-2.581-1.033Zm8.642.911,3.158-7.124h.7l3.168,7.124h-.79l-.881-1.952H129.9l-.86,1.952Zm1.892-2.61h3.219l-1.609-3.573Zm8.714,2.61v-7.084h2.318a3.9,3.9,0,0,1,2.773.982,3.615,3.615,0,0,1,0,5.122,3.9,3.9,0,0,1-2.773.981h-2.318Zm.749-.677h1.478a3.313,3.313,0,0,0,2.318-.78,2.983,2.983,0,0,0,0-4.17,3.31,3.31,0,0,0-2.318-.779h-1.478Zm12.616-6.528a3.389,3.389,0,0,1,2.54,1.052,3.859,3.859,0,0,1,0,5.233,3.629,3.629,0,0,1-5.091,0,3.887,3.887,0,0,1,0-5.233A3.414,3.414,0,0,1,152.232,387.01Zm0,6.629h0a2.64,2.64,0,0,0,1.993-.85,3.168,3.168,0,0,0,0-4.231,2.762,2.762,0,0,0-3.987,0,3.168,3.168,0,0,0,0,4.231A2.644,2.644,0,0,0,152.232,393.639Zm7.01-.05v-.84a3.855,3.855,0,0,0,1.1.628,4.281,4.281,0,0,0,1.468.263c1.1,0,1.912-.516,1.912-1.336a1.046,1.046,0,0,0-.587-.962,1.662,1.662,0,0,0-.425-.2l-.445-.152c-.1-.03-.284-.091-.536-.162-.314-.09-.567-.161-.749-.223a5.4,5.4,0,0,1-.627-.253,1.875,1.875,0,0,1-.526-.354,1.668,1.668,0,0,1-.446-1.154,1.6,1.6,0,0,1,.647-1.315,2.824,2.824,0,0,1,1.8-.516,4.064,4.064,0,0,1,2.206.587v.77a4.076,4.076,0,0,0-2.186-.658c-1.134,0-1.711.507-1.711,1.154a.921.921,0,0,0,.456.8,1.256,1.256,0,0,0,.333.162l.344.132.435.121.426.122c.293.09.526.161.7.223a4.64,4.64,0,0,1,.617.273,2.216,2.216,0,0,1,.547.384,1.684,1.684,0,0,1,.5,1.215,1.727,1.727,0,0,1-.769,1.5,3.1,3.1,0,0,1-1.862.546,4.587,4.587,0,0,1-2.621-.748Z" transform="translate(0 -338.856)" fill="#fefefe"/>
  <path id="Caminho_156" data-name="Caminho 156" d="M0,375.917V359.205H4.3v12.94h8.023v3.773Zm26.2.335a8.693,8.693,0,1,1,0-17.382,8.693,8.693,0,1,1,0,17.382Zm0-3.963h0a4.109,4.109,0,0,0,3.127-1.338,5.175,5.175,0,0,0,0-6.78,4.11,4.11,0,0,0-3.127-1.338,4.165,4.165,0,0,0-3.152,1.338,5.249,5.249,0,0,0,0,6.78A4.165,4.165,0,0,0,26.2,372.289Zm16.626,1.527a8.733,8.733,0,0,1-.025-12.51,9.468,9.468,0,0,1,6.661-2.436,9.653,9.653,0,0,1,4.321.955v4.227a7.933,7.933,0,0,0-4.273-1.218A4.9,4.9,0,0,0,46,364.171a4.5,4.5,0,0,0-1.408,3.391,4.451,4.451,0,0,0,1.432,3.413,5.24,5.24,0,0,0,3.653,1.313,7.067,7.067,0,0,0,4.393-1.338V375.2a9.957,9.957,0,0,1-4.584,1.052A9.464,9.464,0,0,1,42.827,373.816Zm43.517,2.1V362.976H81.33v-3.771H95.68v3.771H90.642v12.941Zm15.953,0V359.205H115v3.771H106.6v2.268h6.686v3.63H106.6v3.27H115v3.773H102.3Zm20.347,0V359.205h4.3v12.94h8.022v3.773Zm18.914,0V359.205h4.3v12.94h8.023v3.773h-12.32Zm18.962,0V359.205h4.3v16.712ZM68.786,364.481l4.465,11.437h4.655l-7.019-16.808H66.756l-7.019,16.808H64.32l4.466-11.437Zm9.5,29.734,3.158-7.124h.7l3.168,7.124h-.789l-.881-1.952H79.93l-.86,1.952h-.779Zm1.892-2.61H83.4l-1.609-3.573Zm8.714,2.61v-7.084h2.318a3.9,3.9,0,0,1,2.773.982,3.616,3.616,0,0,1,0,5.122,3.9,3.9,0,0,1-2.773.981H88.9Zm.749-.677h1.478a3.313,3.313,0,0,0,2.318-.78,2.981,2.981,0,0,0,0-4.17,3.311,3.311,0,0,0-2.318-.779H89.645Zm11.43.718-3.117-7.125h.82l2.651,6.092,2.652-6.092h.819l-3.127,7.125h-.7Zm10.3-7.246a3.389,3.389,0,0,1,2.54,1.052,3.859,3.859,0,0,1,0,5.233,3.629,3.629,0,0,1-5.09,0,3.889,3.889,0,0,1,0-5.233,3.413,3.413,0,0,1,2.55-1.052Zm0,6.629h0a2.643,2.643,0,0,0,1.994-.85,3.168,3.168,0,0,0,0-4.231,2.762,2.762,0,0,0-3.987,0,3.17,3.17,0,0,0,0,4.231A2.645,2.645,0,0,0,111.377,393.639Zm8.243-.335a3.856,3.856,0,0,1,0-5.252,3.514,3.514,0,0,1,2.6-1.043,3.638,3.638,0,0,1,2.247.678v.759a3.556,3.556,0,0,0-2.206-.739,2.838,2.838,0,0,0-2.085.84,3.164,3.164,0,0,0-.01,4.26,2.763,2.763,0,0,0,2.034.83,2.715,2.715,0,0,0,2.014-.738v-2.753h.738v3.046a3.7,3.7,0,0,1-2.753,1.144,3.535,3.535,0,0,1-2.581-1.033Zm8.642.911,3.158-7.124h.7l3.168,7.124h-.79l-.881-1.952H129.9l-.86,1.952Zm1.892-2.61h3.219l-1.609-3.573Zm8.714,2.61v-7.084h2.318a3.9,3.9,0,0,1,2.773.982,3.615,3.615,0,0,1,0,5.122,3.9,3.9,0,0,1-2.773.981h-2.318Zm.749-.677h1.478a3.313,3.313,0,0,0,2.318-.78,2.983,2.983,0,0,0,0-4.17,3.31,3.31,0,0,0-2.318-.779h-1.478Zm12.616-6.528a3.389,3.389,0,0,1,2.54,1.052,3.859,3.859,0,0,1,0,5.233,3.629,3.629,0,0,1-5.091,0,3.887,3.887,0,0,1,0-5.233A3.414,3.414,0,0,1,152.232,387.01Zm0,6.629h0a2.64,2.64,0,0,0,1.993-.85,3.168,3.168,0,0,0,0-4.231,2.762,2.762,0,0,0-3.987,0,3.168,3.168,0,0,0,0,4.231A2.644,2.644,0,0,0,152.232,393.639Zm7.01-.05v-.84a3.855,3.855,0,0,0,1.1.628,4.281,4.281,0,0,0,1.468.263c1.1,0,1.912-.516,1.912-1.336a1.046,1.046,0,0,0-.587-.962,1.662,1.662,0,0,0-.425-.2l-.445-.152c-.1-.03-.284-.091-.536-.162-.314-.09-.567-.161-.749-.223a5.4,5.4,0,0,1-.627-.253,1.875,1.875,0,0,1-.526-.354,1.668,1.668,0,0,1-.446-1.154,1.6,1.6,0,0,1,.647-1.315,2.824,2.824,0,0,1,1.8-.516,4.064,4.064,0,0,1,2.206.587v.77a4.076,4.076,0,0,0-2.186-.658c-1.134,0-1.711.507-1.711,1.154a.921.921,0,0,0,.456.8,1.256,1.256,0,0,0,.333.162l.344.132.435.121.426.122c.293.09.526.161.7.223a4.64,4.64,0,0,1,.617.273,2.216,2.216,0,0,1,.547.384,1.684,1.684,0,0,1,.5,1.215,1.727,1.727,0,0,1-.769,1.5,3.1,3.1,0,0,1-1.862.546,4.587,4.587,0,0,1-2.621-.748Z" transform="translate(0 -338.856)" fill="#fefefe"/>
  <path id="Caminho_142" data-name="Caminho 142" d="M3129.9,25.682l-5.477-5.474,1.353-1.355,4.123,4.12,4.112-4.118,1.355,1.353-5.465,5.474Zm10.638.178h-7.744V23.947h5.83V18.125h1.915V25.86Zm2.179-1.923-1.354-1.354,4.119-4.117-4.119-4.121,1.354-1.354,5.472,5.475-5.472,5.471Zm5.651-8.375h-1.914V9.736h-5.82V7.822h7.734ZM3145.089,7l-4.12-4.12L3136.858,7,3135.5,5.645l5.465-5.473,5.475,5.473Zm-12.846.727h-1.915V-.01h7.74V1.905h-5.826V7.727Zm-4.09,5.133-5.476-5.474,5.476-5.471,1.353,1.353-4.12,4.117,4.121,4.119-1.354,1.353Zm2.081,5.17H3122.5V10.29h1.914v5.824h5.821V18.03Z" transform="translate(-2948.368 0.01)" fill="#f24f00"/>
</svg>
